<?xml version="1.0" encoding="UTF-8"?>
<svg width="432.14mm" height="432.14mm" version="1.1" viewBox="0 0 432.14 432.14" xmlns="http://www.w3.org/2000/svg">
<g transform="translate(895.27 -260.09)">
<circle cx="-679.2" cy="476.16" r="216.07" fill="#1a1a1a" stroke-width=".26458"/>
<g transform="translate(-513.45 -109.77)">
<rect x="-292.97" y="448.46" width="253.43" height="274.93" ry="14.78" fill="#fff" stroke-width=".24327"/>
<g transform="matrix(.015082 0 0 -.015082 -231.51 619.1)">
<path d="m3950 8173c-463-20-903-112-1325-278-161-63-432-195-473-230-135-115-87-341 85-391 76-22 116-12 267 63 460 230 906 346 1436 373 236 13 270 21 329 85 47 51 66 109 57 179-15 126-123 209-266 204-25-1-74-3-110-5z"/>
<path d="m5160 7999c-37-11-93-50-122-84-28-31-51-122-44-167 18-109 76-163 231-215 277-92 550-223 811-391 93-60 153-77 220-62 172 39 240 237 127 370-64 74-416 277-684 393-175 77-397 155-455 161-27 3-65 0-84-5z"/>
<path d="m4295 7196c-27-13-60-34-72-47-34-37-63-110-63-159 0-84 65-183 139-212 14-5 83-18 153-29 188-28 306-55 473-110 177-58 442-185 595-286 607-400 1021-1030 1140-1738 59-354 44-925-41-1520-85-598-246-1196-474-1755-75-185-79-202-65-266 38-171 238-240 370-127 48 41 67 78 145 273 296 742 488 1588 545 2395 31 441 23 789-25 1071-221 1305-1259 2322-2565 2514-172 25-194 25-255-4z"/>
<path d="m3345 7141c-317-84-562-187-838-354-248-150-563-412-611-509-43-86-31-175 33-249 44-52 101-78 169-79 76 0 113 20 216 114 220 201 388 317 641 441 183 91 362 156 545 200 133 31 156 42 197 88 97 110 74 274-48 350-73 45-127 45-304-2z"/>
<path d="m1334 7045c-96-47-390-391-573-669-390-592-608-1254-652-1981-13-218-9-286 19-341 92-179 350-162 421 29 6 16 11 75 11 131 0 330 63 713 171 1042 170 520 413 933 790 1344 58 63 114 131 124 149 19 38 23 130 6 174-48 124-197 182-317 122z"/>
<path d="m6663 7049c-80-39-123-111-123-204 0-80 17-111 120-222 512-547 830-1196 939-1913 22-147 41-372 41-489 0-93 14-141 57-190 98-115 277-106 360 18 39 58 46 104 39 261-28 620-158 1131-423 1660-157 313-344 592-580 860-130 148-192 206-238 226-51 21-142 18-192-7z"/>
<path d="m3885 6284c-242-35-281-48-338-115-96-111-59-282 76-351 48-24 106-25 242-4 125 20 338 20 470 1 328-47 637-193 879-415 49-44 102-88 118-96 49-25 122-29 174-9 98 37 153 115 154 216 0 86-32 139-146 239-314 277-644 437-1069 515-87 17-485 30-560 19z"/>
<path d="m1565 5751c-108-27-160-96-279-375-160-373-246-797-246-1207 0-194-39-413-107-594-41-110-138-291-211-394-37-52-122-152-189-221-90-95-124-137-132-166-23-83-7-156 46-215 51-56 106-82 174-82 81 0 140 36 262 163 172 177 288 342 393 555 153 314 209 553 224 960 18 482 93 795 284 1184 46 93 56 123 56 165 0 104-66 192-166 222-51 15-63 16-109 5z"/>
<path d="m2662 5714c-52-26-137-112-239-244-170-218-302-490-372-763-44-170-61-308-66-536-11-472-99-835-294-1218-156-307-369-573-664-831-124-109-146-144-147-235 0-126 99-226 225-227 66 0 102 19 216 116 458 387 777 857 964 1419 101 305 142 541 155 905 10 275 23 376 69 541 69 246 193 463 380 669 84 92 101 128 101 208 0 166-176 272-328 196z"/>
<path d="m3935 5339c-437-64-806-371-945-787-42-125-57-240-64-468s-16-317-51-530c-86-518-298-1034-604-1469-157-224-389-484-579-648-131-114-164-187-130-298 38-128 202-199 316-136 60 32 204 161 358 320 606 626 995 1427 1113 2292 22 160 41 417 41 553 0 332 213 613 530 698 88 24 272 24 360 1 257-69 461-284 514-539 20-99 21-309 1-568-87-1158-505-2206-1248-3128-48-60-79-109-87-138-41-145 68-287 221-287 89 0 134 28 227 141 563 691 963 1483 1177 2332 114 454 171 873 182 1340 6 281-2 360-53 521-94 300-335 569-627 704-192 88-442 124-652 94z"/>
<path d="m5840 4961c-74-23-117-61-149-131-27-59-26-106 4-213 52-188 58-270 52-652-7-399-6-400 73-467 130-112 329-46 370 124 6 23 14 194 17 379 5 289 3 354-12 460-21 148-65 330-94 387-46 89-166 142-261 113z"/>
<path d="m4005 4381c-95-44-135-122-135-265 0-50-5-158-10-241-74-1106-528-2128-1296-2916-125-128-153-175-154-257 0-129 97-224 231-224 82 0 118 23 259 169 767 784 1253 1795 1390 2893 44 348 53 656 21 725-54 117-192 169-306 116z"/>
<path d="m5735 2906c-43-19-93-63-112-100-9-17-31-93-49-169-161-663-417-1281-784-1888-130-214-140-257-89-360 37-75 114-119 207-119 48 0 68 6 112 33 46 27 65 48 121 137 380 601 689 1323 864 2025 56 222 57 274 9 351-54 88-187 130-279 90z"/>
</g>
<rect x="-299.03" y="476.89" width="266.55" height="8.0773" fill="#1a1a1a" stroke-width=".26458"/>
<rect x="-122.34" y="459.72" width="68.657" height="8.0773" fill="#1a1a1a" stroke-width=".13428"/>
<rect x="-281.66" y="458.2" width="8.3805" height="8.3805" fill="#1a1a1a" stroke-width=".16574"/>
<rect x="-267.93" y="458.2" width="8.3805" height="8.3805" fill="#1a1a1a" stroke-width=".16574"/>
<rect x="-254.74" y="458.2" width="8.3805" height="8.3805" fill="#1a1a1a" stroke-width=".16574"/>
<g transform="translate(-1.2621)" fill="#1a1a1a">
<g transform="translate(-97.096 152.78)" stroke-width=".12718">
<rect x="-21.708" y="493.73" width="61.59" height="8.0773"/>
<rect x="-21.708" y="508.43" width="61.59" height="8.0773"/>
<rect x="-21.708" y="523.14" width="61.59" height="8.0773"/>
<rect x="-21.708" y="537.84" width="61.59" height="8.0773"/>
<rect x="-21.708" y="552.55" width="61.59" height="8.0773"/>
</g>
<g transform="translate(-95.329 152.78)" stroke-width=".13624">
<rect x="-110.56" y="493.73" width="70.677" height="8.0773"/>
<rect x="-110.56" y="508.43" width="70.677" height="8.0773"/>
<rect x="-110.56" y="523.14" width="70.677" height="8.0773"/>
<rect x="-110.56" y="537.84" width="70.677" height="8.0773"/>
<rect x="-110.56" y="552.55" width="70.677" height="8.0773"/>
</g>
<g transform="translate(-97.096 152.78)" stroke-width=".10169">
<rect x="-175.68" y="493.73" width="39.377" height="8.0773"/>
<rect x="-175.68" y="508.43" width="39.377" height="8.0773"/>
<rect x="-175.68" y="523.14" width="39.377" height="8.0773"/>
<rect x="-175.68" y="537.84" width="39.377" height="8.0773"/>
<rect x="-175.68" y="552.55" width="39.377" height="8.0773"/>
</g>
</g>
</g>
</g>
</svg>
